<svg width="64" height="64" viewBox="0 0 200 200" xmlns="http://www.w3.org/2000/svg">
  <defs>
    <radialGradient id="goldGrad" cx="50%" cy="50%" r="50%">
      <stop offset="0%" stop-color="#E8C96D"/>
      <stop offset="100%" stop-color="#A67C00"/>
    </radialGradient>
  </defs>
  <circle cx="100" cy="100" r="100" fill="#1A3A1A"/>
  <circle cx="100" cy="100" r="86" fill="none" stroke="url(#goldGrad)" stroke-width="3" opacity="0.6"/>
  <g transform="rotate(0,100,100)">
    <line x1="100" y1="100" x2="100" y2="46" stroke="url(#goldGrad)" stroke-width="4" opacity="0.85"/>
    <ellipse cx="100" cy="38" rx="10" ry="16" fill="url(#goldGrad)"/>
  </g>
  <g transform="rotate(45,100,100)">
    <line x1="100" y1="100" x2="100" y2="46" stroke="url(#goldGrad)" stroke-width="4" opacity="0.85"/>
    <ellipse cx="100" cy="38" rx="10" ry="16" fill="url(#goldGrad)"/>
  </g>
  <g transform="rotate(90,100,100)">
    <line x1="100" y1="100" x2="100" y2="46" stroke="url(#goldGrad)" stroke-width="4" opacity="0.85"/>
    <ellipse cx="100" cy="38" rx="10" ry="16" fill="url(#goldGrad)"/>
  </g>
  <g transform="rotate(135,100,100)">
    <line x1="100" y1="100" x2="100" y2="46" stroke="url(#goldGrad)" stroke-width="4" opacity="0.85"/>
    <ellipse cx="100" cy="38" rx="10" ry="16" fill="url(#goldGrad)"/>
  </g>
  <g transform="rotate(180,100,100)">
    <line x1="100" y1="100" x2="100" y2="46" stroke="url(#goldGrad)" stroke-width="4" opacity="0.85"/>
    <ellipse cx="100" cy="38" rx="10" ry="16" fill="url(#goldGrad)"/>
  </g>
  <g transform="rotate(225,100,100)">
    <line x1="100" y1="100" x2="100" y2="46" stroke="url(#goldGrad)" stroke-width="4" opacity="0.85"/>
    <ellipse cx="100" cy="38" rx="10" ry="16" fill="url(#goldGrad)"/>
  </g>
  <g transform="rotate(270,100,100)">
    <line x1="100" y1="100" x2="100" y2="46" stroke="url(#goldGrad)" stroke-width="4" opacity="0.85"/>
    <ellipse cx="100" cy="38" rx="10" ry="16" fill="url(#goldGrad)"/>
  </g>
  <g transform="rotate(315,100,100)">
    <line x1="100" y1="100" x2="100" y2="46" stroke="url(#goldGrad)" stroke-width="4" opacity="0.85"/>
    <ellipse cx="100" cy="38" rx="10" ry="16" fill="url(#goldGrad)"/>
  </g>
  <circle cx="100" cy="100" r="10" fill="url(#goldGrad)"/>
  <circle cx="100" cy="100" r="4" fill="#F8F2E3"/>
</svg>
